<?xml version="1.0" encoding="utf-8"?>
<!-- Generator: Adobe Illustrator 22.1.0, SVG Export Plug-In . SVG Version: 6.00 Build 0)  -->
<svg version="1.1" id="圖層_1" xmlns="http://www.w3.org/2000/svg" xmlns:xlink="http://www.w3.org/1999/xlink" x="0px" y="0px"
	 viewBox="0 0 2500 2500" style="enable-background:new 0 0 2500 2500;" xml:space="preserve">
<style type="text/css">
	.st0{fill:#F6D563;}
	.st1{fill:none;stroke:#2360A5;stroke-width:1.748;stroke-miterlimit:2.613;}
	.st2{fill:#2360A5;}
</style>
<path class="st0" d="M1370.8,988.3c1.9,26.9,22.7,38.1,46.2,26.5l325.5-157.4c18.5-8.8,35-17.7,11.9-42.3
	c-110-115.4-223.5-181.6-379.4-218.9c-17.7-4.2-33.1-5.4-30.4,31.5L1370.8,988.3L1370.8,988.3z M1250.8,1086.9V83.3
	c13.2,0,26.3,0.7,36.9,2c32.7,54.6,47.7,122.4,47.3,180.9c29.3,1.9,59.3,5.8,88.5,11.2c15.4-56.6,47.3-117.7,93.1-162.4
	c21.2,3.1,52,11.2,72,19.6c17.7,61.2,14.6,130.4-1.2,187c28.9,10.4,57.3,22.3,83.9,35c29.3-50.8,75.8-101.6,131.2-132.4
	c20,8.1,47.3,23.9,64.6,37.3c1.1,63.5-19.6,129.7-49.6,180.8c24,17.2,47.2,35.4,69.6,54.7c41.9-41.6,100-78.5,162-94.3
	c16.5,13.1,39.2,35.8,52.7,53.1c-15.8,61.6-52.7,120-94.7,162c18.5,22.6,36.2,45.8,53.1,69.6c51.6-28.9,117.4-49.6,181.3-48.5
	c5.1,6.9,10.9,15.6,16.4,24.8l-897.4,513.8c-19.3-29.2-49.3-49.6-83.5-56.9l-1.8-33.8L1250.8,1086.9L1250.8,1086.9z"/>
<path class="st0" d="M1537.4,1222.5c-22.4,15.1-21.6,38.7,0.1,53.3l299.1,203.2c16.9,11.6,32.9,21.5,42.6-10.8
	c45-153,45.5-284.4-0.1-438c-5.2-17.4-11.9-31.3-42.5-10.6L1537.4,1222.5z M2233.9,1336.9c-2.7,28.5-6.5,56.9-11.6,85
	c56.2,15,117.4,46.9,162,92.7c-3.1,21.2-11.1,51.9-19.6,71.9c-61.2,17.7-130.4,14.6-187-0.8c-9.9,26.7-20.8,53-32.7,78.9
	c50.4,30.4,101.2,77,132,132.4c-4.7,11.5-11.9,25.4-19.7,38.5l-893-517.4c12.1-20.4,18.4-43.7,18.4-67.4c0-27.1-8.2-52.3-22.1-73.3
	L2258,663.8c8.1,13.4,15.9,28,20.9,39.9c-31.2,55.4-82.4,102.4-133.1,132c11.9,26.5,23.5,53.1,33.1,79.6
	c57.4-15.4,126.2-18.1,187.4-0.8c8.1,19.6,16.2,50.8,19.2,71.9c-44.3,45.8-105.8,78.1-162.8,93.1c5,28.9,9.2,57.7,11.6,86.6
	c59.2,0.4,126.6,15.4,181.2,48.1c2.7,21.2,2.7,53.1,0,74.6C2360.8,1321.6,2293.1,1336.6,2233.9,1336.9L2233.9,1336.9z"/>
<path class="st0" d="M1417.8,1482.4c-24.2-11.9-44.3,0.8-46.2,26.5l-26.2,360.5c-1.5,20.4-2.3,39.6,30.4,31.6
	c155.4-37.3,268.9-102.7,379.4-219c12.7-13.4,21.5-26.1-11.9-42.3L1417.8,1482.4L1417.8,1482.4z M2058.8,1812.9
	c-17,24.3-35,47.9-53.9,70.8c41.5,41.9,78.5,100.1,94.3,162c-13.1,16.5-35.8,39.2-53.1,52.7c-61.6-15.8-120-52.7-162.4-94.3
	c-21.9,18.5-44.6,36.6-67.7,52.7c29.2,51.6,50,117.4,48.9,181.3c-17,12.7-44.6,28.9-64.6,37.3c-55.4-31.2-102.4-82.3-132-133.1
	c-26.5,12.7-53.5,24.6-81.2,35c15.4,57.7,18.1,126.6,0.8,187.8c-19.6,8.1-50.8,16.1-71.9,19.2c-45.8-44.3-78.1-105.8-93.1-162.8
	c-27.7,5-56.6,9.6-85,11.9c-0.4,59.2-15.4,126.6-48.1,181.2c-11,1.4-25,2-38.9,2v-1033c46.7-0.4,89.8-25.2,113.5-65.5l893,517.4
	c-5.4,9.1-11.2,17.8-17.6,26.2C2176.2,1863,2110,1842.2,2058.8,1812.9L2058.8,1812.9z"/>
<path class="st0" d="M1162.7,1874.1c2.3,36.9-12.7,35.8-30.8,31.2c-155.8-37-269.3-103.1-379.4-218.9c-23.1-24.2-6.2-33.1,11.9-41.9
	l325.5-157.8c23.5-11.1,44.3,0,46.2,26.5L1162.7,1874.1L1162.7,1874.1z M1249.7,1383.8c-52.4,0-97.8-30.3-119.4-74.4L235,1821.9
	c8.1,15.1,17.9,30.7,26.2,41.8c63.9,1.2,129.7-19.6,180.9-48.9c16.9,24.2,35.4,47.7,54.3,70.4c-41.9,41.5-78.9,100-94.7,161.6
	c13.5,17.3,36.2,40,52.7,53.1c62-15.8,120.1-52.7,162-93.9c22.8,19.1,46.4,37.2,70.8,54.2c-28.9,51.2-49.6,117.4-48.9,181.3
	c17.3,13.1,45,28.9,64.7,37.3c55.8-31.2,102.3-82,132.4-133.5c25.8,11.5,52,22.1,78.5,31.9c-15,56.6-18.1,125.8-0.4,187
	c20,8.5,50.8,16.5,72,19.6c45.8-44.6,77.7-105.8,92.3-162.4c28.5,5.7,58.5,9.6,89.3,12.3c0.4,58.5,15.4,126.2,48.1,180.8
	c10.3,1.3,23,1.9,35.8,2v-1033L1249.7,1383.8L1249.7,1383.8z"/>
<path class="st0" d="M964.4,1278.4c22.4-15.1,21.6-38.7-0.1-53.2l-299.1-203.2c-16.9-11.6-32.8-21.5-42.6,10.8
	c-44.9,153-45.5,284.4,0.1,438c5.2,17.5,11.9,31.4,42.5,10.5L964.4,1278.4L964.4,1278.4z M1130.3,1309.4L235,1821.9
	c-4.1-7.4-7.8-15.1-11.2-22.9c31.2-55.4,82.3-102.3,133.1-131.6c-12.7-26-24.3-52.6-34.6-79.6c-57.7,15.4-126.6,18.1-187.8,0.8
	c-8.1-19.6-16.2-50.8-19.2-71.9c44.2-45.8,105.8-78.1,162.8-93.9c-5-29.3-9.6-59.3-12.3-88.9c-59.3,0-126.6-15-181.2-47.7
	c-2.7-21.2-2.7-53.1,0-74.6c54.6-32.7,122.4-47.7,181.6-47.7c3.1-29.2,6.9-58.5,11.2-87c-57-15-118.1-47-162.8-92.7
	c3.1-21.2,11.2-51.9,19.6-72c61.2-17.7,130.4-14.6,187.8,0.4c10-26.8,20.9-53.2,32.7-79.3c-51.2-30-102-76.6-133.1-132.4
	c5.2-11.8,11.2-23.3,17.7-34.5l895.1,518.5c-11.5,20-17.5,42.7-17.5,65.8C1116.7,1271.8,1121.6,1291.7,1130.3,1309.4L1130.3,1309.4z
	 M1084.3,1017.8L758.8,860.4c-18.5-8.9-35-17.7-11.9-42.3c54.7-57.3,110.2-102.5,171.3-138L661.6,241.3c-10.5,6-20.6,12.6-30.3,19.8
	c-1.2,63.9,19.6,129.7,49.3,181.2c-21.9,16.6-44.3,33.5-65.4,51.6c-41.9-42-100.4-78.9-162-94.7c-17.3,13.5-40,36.2-53.1,52.7
	c15.8,62,52.7,120,94.3,162c-18.5,23.1-37.3,47.3-54.6,72c-50.8-29.6-117-50.4-180.9-49.6c-7.1,9.7-13.7,19.7-19.6,30.2l895.1,518.5
	c11.9-20.8,29.1-38,50-49.9l-68.2-116.6C1107.6,1023.6,1096.3,1023.7,1084.3,1017.8L1084.3,1017.8z"/>
<path class="st0" d="M1213.1,85.3c-32.7,54.6-47.7,122-47.7,180.9c-30,1.9-59.6,6.1-88.9,11.2c-15.4-57-47.7-118.5-93.5-162.8
	c-21.2,3.1-52.3,11.2-72,19.2c-17.3,61.2-14.6,130.1,0.8,187.4c-28.4,11-56.3,22.9-83.9,35.8c-29.6-50.8-76.6-102-132-133.1
	c-10.2,4.3-22.5,10.7-34.3,17.6L918.1,680c61.9-36,129.7-62.1,208.1-80.9c17.7-4.2,33.1-5.4,30.4,31.6l-26.2,360.5
	c-0.9,13.2-6.4,22.5-14.4,27.3l68.2,116.6c9.4-5.4,19.6-9.6,30.3-12.5l2.3-35.7h34V83.3C1237.3,83.2,1223.8,83.9,1213.1,85.3
	L1213.1,85.3z"/>
<path class="st1" d="M1156.6,630.7c2.7-37-12.7-35.8-30.4-31.6c-155.8,37.3-269.4,103.5-379.4,219c-23.1,24.6-6.5,33.5,11.9,42.3
	l325.5,157.4c23.5,11.5,44.3,0.4,46.2-26.5L1156.6,630.7L1156.6,630.7z M1162.7,1874.1c2.3,36.9-12.7,35.8-30.8,31.2
	c-155.8-37-269.3-103.1-379.4-218.9c-23.1-24.2-6.2-33.1,11.9-41.9l325.5-157.8c23.5-11.1,44.3,0,46.2,26.5L1162.7,1874.1
	L1162.7,1874.1z M1743.3,1639.8c33.5,16.2,24.6,28.9,11.9,42.3c-110.5,116.2-224,181.6-379.4,219c-32.7,8.1-31.9-11.2-30.4-31.6
	l26.2-360.5c1.9-25.8,21.9-38.5,46.2-26.5L1743.3,1639.8z M1742.5,857.5c18.5-8.8,35-17.7,11.9-42.3
	c-110-115.4-223.5-181.6-379.4-218.9c-17.7-4.2-33.1-5.4-30.4,31.5l26.2,360.5c1.9,26.9,22.7,38.1,46.2,26.5L1742.5,857.5
	L1742.5,857.5z M1836.5,1019.6c30.6-20.8,37.3-6.9,42.5,10.6c45.6,153.6,45,285,0.1,438c-9.8,32.3-25.7,22.4-42.6,10.8l-299.1-203.2
	c-21.7-14.5-22.4-38.1-0.1-53.3L1836.5,1019.6z M964.3,1225.2c21.7,14.6,22.4,38.1,0.1,53.2l-299.2,202.9
	c-30.6,20.8-37.3,6.9-42.5-10.5c-45.6-153.6-45-285-0.1-438c9.8-32.3,25.7-22.4,42.6-10.8L964.3,1225.2L964.3,1225.2z
	 M1277.1,1120.7c60.3,12.6,105.6,66.1,105.6,130.2c0,73.4-59.5,133-133,133c-73.4,0-133-59.5-133-133c0-61.2,41.4-112.8,97.7-128.3
	l2.3-35.7h58.5L1277.1,1120.7L1277.1,1120.7z M1249.2,1028.7c122,0,221.7,99.6,221.7,221.7c0,122-99.7,221.7-221.7,221.7
	c-122,0-221.7-99.7-221.7-221.7C1027.5,1128.3,1127.2,1028.7,1249.2,1028.7z M1423.5,277.3c-29.3-5.4-58.8-9.2-88.5-11.2
	c0.4-58.5-14.6-126.2-47.3-180.9c-21.6-2.7-53.5-2.7-74.6,0c-32.7,54.6-47.7,122-47.7,180.9c-30,1.9-59.6,6.1-88.9,11.2
	c-15.4-57-47.7-118.5-93.5-162.8c-21.2,3.1-52.3,11.2-72,19.2c-17.3,61.2-14.6,130.1,0.8,187.4c-28.1,10.8-56.6,23.1-83.9,35.8
	c-29.6-50.8-76.6-102-132-133.1c-20,8.5-47.7,24.6-64.6,37.3c-1.2,63.9,19.6,129.7,49.3,181.2c-21.9,16.5-44.3,33.5-65.4,51.6
	c-41.9-41.9-100.4-78.9-162-94.7c-17.3,13.5-40,36.2-53.1,52.7c15.8,62,52.7,120,94.3,162c-18.5,23.1-37.3,47.3-54.6,72
	c-50.8-29.6-117-50.4-180.9-49.6c-13.1,17.3-28.9,45-37.3,64.6c31.2,55.8,82,102.4,133.1,132.4c-11.8,26.1-22.7,52.5-32.7,79.3
	c-57.3-15-126.6-18.1-187.8-0.4c-8.5,20-16.5,50.8-19.6,72c44.6,45.8,105.8,77.7,162.8,92.7c-4.2,28.5-8.1,57.7-11.2,87
	c-59.3,0-127,15-181.6,47.7c-2.7,21.5-2.7,53.5,0,74.6c54.6,32.7,122,47.7,181.2,47.7c2.7,29.6,7.3,59.6,12.3,88.9
	c-57,15.8-118.5,48.1-162.8,93.9c3.1,21.2,11.2,52.3,19.2,71.9c61.2,17.3,130.1,14.6,187.8-0.8c10.4,27,21.9,53.6,34.6,79.6
	c-50.8,29.3-102,76.2-133.1,131.6c8.5,20,24.6,47.7,37.3,64.6c63.9,1.2,129.7-19.6,180.9-48.9c16.9,24.2,35.4,47.7,54.3,70.4
	c-41.9,41.5-78.9,100-94.7,161.6c13.5,17.3,36.2,40,52.7,53.1c62-15.8,120.1-52.7,162-93.9c22.8,19.1,46.4,37.2,70.8,54.3
	c-28.9,51.2-49.6,117.4-48.9,181.3c17.3,13.1,45,28.9,64.6,37.3c55.8-31.2,102.4-82,132.4-133.5c25.8,11.5,52,22.1,78.5,31.9
	c-15,56.6-18.1,125.8-0.4,187c20,8.5,50.8,16.5,72,19.6c45.8-44.6,77.7-105.8,92.3-162.4c28.5,5.8,58.5,9.6,89.3,12.3
	c0.4,58.5,15.4,126.2,48.1,180.8c21.6,2.7,53.5,2.7,74.6,0c32.7-54.6,47.7-122,48.1-181.2c28.5-2.3,57.3-6.9,85-11.9
	c15,57,47.3,118.5,93.1,162.8c21.2-3.1,52.3-11.2,71.9-19.2c17.3-61.2,14.6-130-0.8-187.8c27.7-10.4,54.6-22.3,81.2-35
	c29.6,50.8,76.6,102,132,133.1c20-8.5,47.7-24.6,64.6-37.3c1.1-63.9-19.6-129.7-48.9-181.3c23.1-16.1,45.8-34.2,67.7-52.7
	c42.3,41.6,100.8,78.5,162.4,94.3c17.3-13.5,40-36.2,53.1-52.7c-15.8-62-52.7-120-94.3-162c18.9-22.9,36.8-46.5,53.9-70.8
	c51.2,29.2,117.4,50,180.9,48.9c13.4-17.3,29.2-44.6,37.3-64.6c-30.8-55.4-81.6-102-132-132.4c11.9-25.9,22.8-52.2,32.7-78.9
	c56.6,15.4,125.8,18.5,187,0.8c8.5-20,16.5-50.8,19.6-71.9c-44.6-45.8-105.8-77.7-162-92.7c5-28.2,8.9-56.5,11.6-85
	c59.2-0.4,127-15.4,181.6-48.1c2.7-21.5,2.7-53.5,0-74.6c-54.6-32.7-122-47.7-181.2-48.1c-2.3-28.9-6.5-57.7-11.6-86.6
	c57-15,118.5-47.3,162.8-93.1c-3.1-21.2-11.1-52.3-19.2-71.9c-61.2-17.3-130-14.6-187.4,0.8c-9.6-26.5-21.2-53.1-33.1-79.6
	c50.8-29.6,102-76.6,133.1-132c-8.5-20-24.6-47.7-37.3-64.7c-63.9-1.1-129.7,19.6-181.3,48.5c-16.9-23.8-34.6-47.1-53.1-69.6
	c41.9-41.9,78.9-100.4,94.7-162c-13.5-17.3-36.2-40-52.7-53.1c-62,15.8-120.1,52.7-162,94.3c-22.4-19.2-45.6-37.5-69.6-54.6
	c30-51.2,50.8-117.4,49.6-180.8c-17.3-13.5-44.6-29.2-64.6-37.3c-55.4,30.8-102,81.6-131.2,132.4c-27.4-13.1-55.4-24.7-83.9-35
	c15.8-56.6,18.8-125.8,1.2-187c-20-8.5-50.8-16.5-72-19.6C1470.9,159.5,1438.9,220.7,1423.5,277.3L1423.5,277.3z"/>
<path class="st2" d="M2116.9,1590.5c-136.6,346.3-475.6,592.2-867.7,592.2s-729.9-244.7-866.1-591c-7.3-18.8,1.5-32.3,16.2-37.3
	l138.5-47.7c7.7-2.3,26.9-2.7,35,17.7c107.8,268.9,373.6,457.1,676.5,457.1c302.8,0,564.1-184.3,676-452.9
	c10.4-24.6,29.3-24.2,37-21.9l138.5,47.7C2115.4,1559.4,2123.8,1572.5,2116.9,1590.5L2116.9,1590.5z M1939.9,623.6
	c193.2,203.6,291.7,516.4,219.7,834.6c-3.9,15.8-15.8,27.3-34.3,21.9l-138.5-40.8c-13.1-3.1-23.9-17-22.7-33.9
	c49.6-258.2-13.9-467.5-165.1-635.3c-15.4-10.8-16.9-33.1-2.3-48.9l100.4-100.4C1904.1,609.3,1926.1,607,1939.9,623.6z"/>
<path class="st0" d="M1574.4,1980.3c0.4-25.4,13.5-49.6,37-63.1c35-20,80.4-8.4,100.8,26.5c6.6,11.6,9.6,24.3,9.6,36.6H1696
	c0-8.1-2.3-16.2-6.5-23.9c-13.1-23.1-41.9-30.4-64.6-17.3c-14.8,8.4-23.9,24.2-23.9,41.2H1574.4L1574.4,1980.3z M1580.9,2011.1
	c-4.2-9.7-6.5-20.2-6.6-30.8h26.5c0.4,8.1,2.3,16.2,6.6,23.5c1.5,2.7,3.1,5,5,7.3H1580.9z M1684,2011.1c7.6-8.4,11.9-19.4,11.9-30.8
	h25.8c0,10.8-2.3,21.2-6.5,30.8H1684L1684,2011.1z"/>
<path class="st0" d="M1580.9,2011.1c1.1,2.3,2.3,4.2,3.5,6.5c20.4,35.4,65.8,47.3,100.4,27.3c13.4-7.8,24.1-19.6,30.4-33.8h-31.2
	c-3.3,4-7.4,7.4-11.9,10c-20,11.5-45,7.3-59.7-10H1580.9L1580.9,2011.1z M459.3,1692.1l127.4-73.9c5.4,10.4,8.8,16.5,15.8,27.7
	l-127.7,73.9C469.3,1711.3,463.9,1701,459.3,1692.1L459.3,1692.1z M1538.6,2108.8l-48.5-139.3c11.6-3.4,18.1-5.4,30-10l48.5,139.3
	C1559,2102.7,1548.2,2105.8,1538.6,2108.8z M640.5,1920.7l80.8-90.4c-11.9-11.6-22.3-22.3-34.6-33.5l17.7-17.7
	c31.2,29.2,58.1,51.2,92,79.2l-15,19.6c-13.1-10-25.8-18.8-38.5-28.9l-78.1,92.4L640.5,1920.7L640.5,1920.7z M1408.2,2143.5
	l-21.6-119.7c-16.5,2.3-31.2,4.2-47.3,6.9l-3.5-25c42.3-6.5,76.2-14.2,119.3-23.9l6.2,24.3c-15.8,4.2-30.8,8.5-46.6,12.3l25,118.5
	L1408.2,2143.5L1408.2,2143.5z M1251.9,2011.1l0.8-2.7l33.1-1.1l1.5,3.9H1251.9z"/>
<path class="st0" d="M1231.5,2072.7l20.4-61.6h35.4l25.4,61.6h-30l-11.9-30.4l-10,30.4H1231.5z M1231.5,2072.7l-27.3,82
	c10,0.4,20,0.8,29.6,1.5l8.1-26.2l64.3-1.9l9.2,25c9.6-1.2,19.2-1.9,29.2-2.7l-31.9-77.7h-30l11.6,28.9l-43.5,1.5l10-30.4
	L1231.5,2072.7L1231.5,2072.7z M1850.2,1775.2l-21.5-35.8l20.8-25.8l147.4,48.5c-3.5,4.2-6.6,8.9-9.6,13.1h-65.8l5.4-6.9l-60.4-20.4
	l16.9,27.3L1850.2,1775.2L1850.2,1775.2z"/>
<path class="st0" d="M1850.2,1775.2l58.5,96.2c6.9-7.3,13.5-14.6,20-21.6l-14.6-23.1l40.4-50l25,9.2c2.3-3.9,5-7.3,7.7-10.8h-65.8
	l-21.6,27.3l-16.5-27.3L1850.2,1775.2L1850.2,1775.2L1850.2,1775.2z M2020.7,1729.8l-130.1-71.9l14.2-25l107.4,59.3l35.8-63.9
	l22.7,12.3L2020.7,1729.8L2020.7,1729.8z M1044.9,2134.6l33.9-145.5c10,1.5,15.8,4.2,26.2,6.5l43.5,98.1l10.4-90
	c9.2,1.5,19.2,0.4,28.1,1.2l-16.5,150.1c-11.5,0.4-22.7-3.1-32.3-4.2l-43.9-99.3l-18.8,88.5
	C1064.9,2138.5,1054.9,2136.9,1044.9,2134.6z M1792.2,1976.5l-88.9-120.5c7.7-6.5,13.5-8.8,21.9-15.4l103.1,30.4l-62-66.2
	c7.3-6.2,13.1-14.2,19.2-20.4l103.1,109.7c-6.9,8.9-16.6,15.4-23.9,21.9l-103.9-31.2l54.6,71.9
	C1807.9,1963.4,1800.2,1970.3,1792.2,1976.5L1792.2,1976.5z M495.1,1754.8l123.9-83.5c6.5,8.1,8.5,13.9,15,22.7l-35,101.6l68.9-59.2
	c5.8,7.7,13.5,13.8,19.6,20.4l-114.3,98.1c-8.9-7.3-14.6-17.3-20.8-24.6l35.4-102.4l-74.3,51.6
	C507.4,1771,500.8,1763.3,495.1,1754.8L495.1,1754.8z M918.3,2002.6l24.6-57.4l66.6,25.4c14.2,5.4,21.2,18.1,22.3,31.9h-27.7
	c-0.6-4.4-3.6-8-7.7-9.6l-36.9-13.9l-8.5,23.5L918.3,2002.6L918.3,2002.6L918.3,2002.6z"/>
<path class="st0" d="M951,2002.6l-3.1,8.5h-33.1l3.4-8.5H951z M1003,2011.1c1.2-2.7,1.5-5.8,1.2-8.5h27.7c0,2.7,0,5.7-0.4,8.5H1003z
	"/>
<path class="st0" d="M914.9,2011.1l-29.6,69.3c9.6,5,19.2,8.1,28.5,11.2l23.1-57l29.2,12.3l1.5,65c11.2,4.2,21.9,7.3,31.9,9.6
	l-4.6-68.5c21.2-2.7,34.6-22.3,36.5-41.9H1003c-3.1,9.2-11.9,17.7-21.5,13.9l-33.9-13.1l0.4-0.8L914.9,2011.1L914.9,2011.1
	L914.9,2011.1z M742.1,2001.1l83.5-122.8c26.2,17.3,54.3,35.8,84.3,50.8l-13.1,21.9c-21.5-10.4-41.9-21.9-61.9-33.1l-17.7,26.5
	c15,9.6,30,18.8,44.6,26.5l-13.5,20.4l-44.6-26.5l-21.9,32.3l66.6,39.6l-13.1,21.6C802.9,2039.6,773.6,2021.9,742.1,2001.1
	L742.1,2001.1z"/>
<path class="st2" d="M1695.6,671.3c-123.1-95.8-279.3-151.6-446.3-151.6c-167,0-323.2,56.2-445.2,151.6
	c-19.2,15.4-33.5,17.7-47.3,2.7l-96.6-106.6c-10.8-12.3-11.2-29.2,8.8-45.4c159.3-126.6,361.7-204.3,580.3-204.3
	s419,77.7,580.6,203.9c20.8,16.5,20.8,33.5,10,45.8L1743.3,674C1729.4,689,1715.2,686.3,1695.6,671.3L1695.6,671.3z"/>
<path class="st0" d="M942.2,450c0-38.1,29.2-69.6,67.3-73.1c40.4-3.5,76.6,26.2,80,66.9c0,1.9,0.4,3.8,0.4,6.2h-26.1
	c0.4-1.5,0-3.1,0-4.6c-2.2-25.8-24.8-44.9-50.6-42.8c-0.2,0-0.4,0-0.6,0.1c-25,1.9-43.5,22.3-43.1,47.3L942.2,450L942.2,450z"/>
<path class="st0" d="M942.2,450c0,2.3,0.4,4.2,0.4,6.5c3.9,40.8,39.6,70.8,79.6,67.3c38.5-3.8,67.7-36.2,67.7-73.9h-26.1
	c0,24.6-18.5,44.6-43.1,47c-25.9,2.3-48.8-16.7-51.1-42.6c0-0.2,0-0.3,0-0.5V450H942.2z M1282.7,413.9l33.1-68.5l32.7,3.1l17.7,65.4
	h-28.1l-8.8-31.6l-15.4,31.6L1282.7,413.9L1282.7,413.9z"/>
<path class="st0" d="M1282.7,413.9l-36.9,76.2c12.7,0.4,17.7,0,30.4,0.8l13.4-25.4c20.4,0.8,40,1.5,61.6,5l8.5,27.3
	c10.8,1.2,18.9,2.3,30.4,4.6l-23.8-88.5h-28.1l8.5,31.2c-15.2-2.3-30.4-3.9-45.8-4.6l13.1-26.5L1282.7,413.9L1282.7,413.9z
	 M1166.9,495.1l-12.7-120.4l-46.9,6.5l-3.5-25.8c53.5-7.7,75-9.6,127.8-12.7l1.9,26.2l-47.3,3.1l12.3,120.4L1166.9,495.1z
	 M1646.7,494.3l-10.8-64.3c-12.3-5.8-19.6-8.9-32.3-14.2l16.9,93.9l-31.9,60.8l27.7,15l31.9-61.2l86.6-40
	c-8.9-6.5-18.9-11.2-28.1-16.9L1646.7,494.3z M1444.3,427.3l17.7-58.5c24.6,6.2,48.9,14.6,73.1,22.3c14.2,4.6,21.6,19.6,22.3,36.2
	h-29.2c0-6.2-2.3-11.2-9.6-13.5c-12.7-4.2-20.8-6.2-34.3-10l-6.9,23.5L1444.3,427.3L1444.3,427.3L1444.3,427.3z"/>
<path class="st0" d="M1444.3,427.3l-24.2,81.6c13.1,3.5,21.2,5,33.5,8.5l13.9-51.6l28.5,8.9l7.3,57.7c12.3,4.6,20,7.7,30.8,11.9
	l-8.9-65.8c22.3-5,33.5-29.2,32.3-51.2h-29.2c-0.4,11.9-11.9,26.2-21.2,23.5l-33.1-10.8l3.5-12.7L1444.3,427.3L1444.3,427.3z
	 M779.4,496.2l-8.5-15c21.5-13.5,44.6-25,66.9-36.9c26.2-14.2,63.9,20.4,61.2,51.9h-32.3c1.1-13.5-9.2-32.7-23.9-24.2
	c-11.9,6.2-18.9,10.4-31.2,17.7l3.8,6.5L779.4,496.2L779.4,496.2z"/>
<path class="st0" d="M779.4,496.2l63.1,112.4c11.9-6.9,18.5-11.6,29.6-18.1l-27.7-45.8l26.2-14.2l46.5,34.6
	c11.9-5.4,19.6-8.9,30-13.9L893.7,512c2.9-4.8,4.7-10.2,5.4-15.8h-32.3c-0.4,4.2-2.3,7.7-5.4,9.6L830.6,522l-15-25.8H779.4
	L779.4,496.2z"/>
<path class="st2" d="M561.6,625.1c-192.8,203.2-290.9,514.8-218.9,833c3.8,15.8,15.8,27.3,34.2,21.9l138.5-40.8
	c13.1-3.1,23.9-17,22.7-33.9c-49.6-258.2,13.9-467.5,165.1-635.3c15.4-10.8,16.9-33.1,2.3-48.9L605.1,620.9
	C594.7,609.3,577.4,609.3,561.6,625.1L561.6,625.1z"/>
</svg>
